<?xml version="1.0" encoding="utf-8"?>
<!-- Generator: Adobe Illustrator 19.2.1, SVG Export Plug-In . SVG Version: 6.00 Build 0)  -->
<svg version="1.1" id="Layer_1" xmlns="http://www.w3.org/2000/svg" xmlns:xlink="http://www.w3.org/1999/xlink" x="0px" y="0px"
	 viewBox="0 0 18 18" style="enable-background:new 0 0 18 18;" xml:space="preserve">
<style type="text/css">
	.st0{fill:#60A6DD;}
	.st1{fill:#8DCCF1;}
	.st2{fill:#355C74;}
</style>
<g>
	<path class="st0" d="M15.2,0H7.5v3.2c0,1.3-1.1,2.4-2.4,2.4H2.3v11.9c0,0.3,0.3,0.5,0.5,0.5h12.4c0.3,0,0.5-0.3,0.5-0.5v-17
		C15.8,0.3,15.5,0,15.2,0z"/>
	<path class="st1" d="M2.6,4.1h2.8l0,0c0.4,0,0.8-0.4,0.8-0.9l0,0V0.5C6.2,0.3,6.1,0,5.8,0C5.7,0,5.7,0,5.6,0.1L2.4,3.4
		C2.1,3.7,2.3,4.1,2.6,4.1z"/>
	<rect x="3.3" y="7.5" class="st2" width="11.5" height="8.6"/>
	<g>
		<rect x="4" y="10.4" class="st1" width="2.9" height="1.4"/>
		<rect x="4" y="13.2" class="st1" width="2.9" height="1.4"/>
		<rect x="7.6" y="10.4" class="st1" width="2.9" height="1.4"/>
		<rect x="7.6" y="13.2" class="st1" width="2.9" height="1.4"/>
		<rect x="11.2" y="10.4" class="st1" width="2.9" height="1.4"/>
		<rect x="11.2" y="13.2" class="st1" width="2.9" height="1.4"/>
	</g>
</g>
</svg>
