<?xml version="1.0" encoding="utf-8"?>
<!-- Generator: Adobe Illustrator 19.2.1, SVG Export Plug-In . SVG Version: 6.00 Build 0)  -->
<svg version="1.1" id="Layer_1" xmlns="http://www.w3.org/2000/svg" xmlns:xlink="http://www.w3.org/1999/xlink" x="0px" y="0px"
	 viewBox="0 0 18 18" style="enable-background:new 0 0 18 18;" xml:space="preserve">
<style type="text/css">
	.st0{fill:url(#SVGID_1_);}
	.st1{fill:#60A6DD;}
	.st2{fill:url(#SVGID_2_);}
	.st3{fill:#355C74;}
	.st4{fill:url(#SVGID_3_);}
	.st5{fill:url(#SVGID_4_);}
	.st6{fill:#FFFFFF;}
	.st7{fill:url(#SVGID_5_);}
	.st8{fill:url(#SVGID_6_);}
	.st9{fill:url(#SVGID_7_);}
	.st10{fill:url(#SVGID_8_);}
	.st11{fill:url(#SVGID_9_);}
	.st12{fill:url(#SVGID_10_);}
	.st13{fill:url(#SVGID_11_);}
	.st14{fill:url(#SVGID_12_);}
	.st15{fill:#62A5DC;}
	.st16{fill:url(#SVGID_13_);}
	.st17{fill:url(#SVGID_14_);}
	.st18{fill:url(#SVGID_15_);}
	.st19{fill-rule:evenodd;clip-rule:evenodd;fill:#355C74;}
	.st20{fill-rule:evenodd;clip-rule:evenodd;fill:#60A6DD;}
	.st21{fill-rule:evenodd;clip-rule:evenodd;fill:url(#SVGID_16_);}
	.st22{fill-rule:evenodd;clip-rule:evenodd;fill:url(#SVGID_17_);}
	.st23{fill:url(#SVGID_18_);}
	.st24{fill:url(#SVGID_19_);}
	.st25{fill:url(#SVGID_20_);}
	.st26{fill:url(#SVGID_21_);}
	.st27{fill:url(#SVGID_22_);}
	.st28{fill:url(#SVGID_23_);}
	.st29{fill:url(#SVGID_24_);}
	.st30{fill:#5FAF5C;}
	.st31{fill:#676767;}
</style>
<g>
	<path class="st3" d="M16.6,8.2v0.3c0,2.4-1.5,4.4-3.4,4.4h-5v0.5c0,1.2,0.7,2.1,1.6,2.1H14l1.9,2.4C15.9,18,16,18,16.1,18
		c0,0,0.1,0,0.1,0c0.1-0.1,0.2-0.2,0.2-0.4v-2.1c0.9-0.1,1.5-1,1.5-2.1v-3.1C18,9.2,17.4,8.3,16.6,8.2z"/>
	<path class="st1" d="M15.6,8.4v-5C15.6,1.5,14.5,0,13,0H2.6C1.2,0,0,1.5,0,3.4v5c0,1.8,1.1,3.2,2.5,3.3V15c0,0.3,0.1,0.6,0.3,0.7
		c0.1,0,0.1,0.1,0.2,0.1c0.1,0,0.3-0.1,0.4-0.2l3-3.8H13C14.5,11.7,15.6,10.2,15.6,8.4z"/>
</g>
</svg>
