<?xml version="1.0" encoding="utf-8"?>
<!-- Generator: Adobe Illustrator 19.2.1, SVG Export Plug-In . SVG Version: 6.00 Build 0)  -->
<svg version="1.1" id="Layer_1" xmlns="http://www.w3.org/2000/svg" xmlns:xlink="http://www.w3.org/1999/xlink" x="0px" y="0px"
	 viewBox="0 0 18 18" style="enable-background:new 0 0 18 18;" xml:space="preserve">
<style type="text/css">
	.st0{fill:url(#SVGID_1_);}
	.st1{fill:#60A6DD;}
	.st2{fill:url(#SVGID_2_);}
	.st3{fill:#355C74;}
	.st4{fill:url(#SVGID_3_);}
	.st5{fill:url(#SVGID_4_);}
	.st6{fill:#FFFFFF;}
	.st7{fill:url(#SVGID_5_);}
	.st8{fill:url(#SVGID_6_);}
	.st9{fill:url(#SVGID_7_);}
	.st10{fill:url(#SVGID_8_);}
	.st11{fill:url(#SVGID_9_);}
	.st12{fill:url(#SVGID_10_);}
	.st13{fill:url(#SVGID_11_);}
	.st14{fill:url(#SVGID_12_);}
	.st15{fill:#62A5DC;}
	.st16{fill:url(#SVGID_13_);}
	.st17{fill:url(#SVGID_14_);}
	.st18{fill:url(#SVGID_15_);}
	.st19{fill-rule:evenodd;clip-rule:evenodd;fill:#355C74;}
	.st20{fill-rule:evenodd;clip-rule:evenodd;fill:#60A6DD;}
	.st21{fill-rule:evenodd;clip-rule:evenodd;fill:url(#SVGID_16_);}
	.st22{fill-rule:evenodd;clip-rule:evenodd;fill:url(#SVGID_17_);}
	.st23{fill:url(#SVGID_18_);}
	.st24{fill:url(#SVGID_19_);}
	.st25{fill:url(#SVGID_20_);}
	.st26{fill:url(#SVGID_21_);}
	.st27{fill:url(#SVGID_22_);}
	.st28{fill:url(#SVGID_23_);}
	.st29{fill:url(#SVGID_24_);}
	.st30{fill:#5FAF5C;}
	.st31{fill:#676767;}
</style>
<g>
	<g>
		<path class="st1" d="M17.6,7.4l-2.1-0.3c-0.1-0.5-0.3-0.9-0.6-1.3l1.3-1.7c0.2-0.2,0.2-0.4,0-0.6l-1.7-1.7c-0.2-0.2-0.4-0.2-0.6,0
			l-1.7,1.3c-0.4-0.2-0.9-0.4-1.3-0.6l-0.3-2.1c0-0.2-0.2-0.4-0.4-0.4H7.8C7.6,0,7.4,0.2,7.4,0.4L7.1,2.6C6.6,2.7,6.2,2.9,5.8,3.1
			L4.1,1.8c-0.2-0.2-0.4-0.2-0.6,0L1.8,3.5c-0.2,0.2-0.2,0.4,0,0.6l1.3,1.7C2.9,6.2,2.7,6.6,2.6,7.1L0.4,7.4C0.2,7.4,0,7.6,0,7.8
			v2.4c0,0.2,0.2,0.4,0.4,0.4l2.1,0.3c0.1,0.5,0.3,0.9,0.6,1.3l-1.3,1.7c-0.2,0.2-0.2,0.4,0,0.6l1.7,1.7c0.2,0.2,0.4,0.2,0.6,0
			l1.7-1.3c0.4,0.2,0.9,0.4,1.3,0.6l0.3,2.1c0,0.2,0.2,0.4,0.4,0.4h2.4c0.2,0,0.4-0.2,0.4-0.4l0.3-2.1c0.5-0.1,0.9-0.3,1.3-0.6
			l1.7,1.3c0.2,0.2,0.4,0.2,0.6,0l1.7-1.7c0.2-0.2,0.2-0.4,0-0.6l-1.3-1.7c0.2-0.4,0.4-0.9,0.6-1.3l2.1-0.3c0.2,0,0.4-0.2,0.4-0.4
			V7.8C18,7.6,17.8,7.4,17.6,7.4z M12.7,10L8,12.7c-0.2,0.1-0.4,0.1-0.6,0.1c-0.2,0-0.4,0-0.6-0.1c-0.3-0.2-0.6-0.6-0.6-1V6.4
			c0-0.4,0.2-0.8,0.6-1c0.3-0.2,0.8-0.2,1.1,0l4.7,2.7c0.3,0.2,0.6,0.6,0.6,1C13.2,9.5,13,9.8,12.7,10z"/>
	</g>
	<linearGradient id="SVGID_1_" gradientUnits="userSpaceOnUse" x1="6.8629" y1="9.0631" x2="12.7313" y2="9.0631">
		<stop  offset="0" style="stop-color:#B4DDF8"/>
		<stop  offset="1" style="stop-color:#8DCCF1"/>
	</linearGradient>
	<path class="st0" d="M12.4,9.6l-4.7,2.7c-0.4,0.2-0.9-0.1-0.9-0.5V6.4c0-0.5,0.5-0.7,0.9-0.5l4.7,2.7C12.8,8.8,12.8,9.3,12.4,9.6z"
		/>
</g>
</svg>
