<?xml version="1.0" encoding="utf-8"?>
<!-- Generator: Adobe Illustrator 19.2.1, SVG Export Plug-In . SVG Version: 6.00 Build 0)  -->
<svg version="1.1" id="Layer_1" xmlns="http://www.w3.org/2000/svg" xmlns:xlink="http://www.w3.org/1999/xlink" x="0px" y="0px"
	 viewBox="0 0 18 18" style="enable-background:new 0 0 18 18;" xml:space="preserve">
<style type="text/css">
	.st0{fill:url(#SVGID_1_);}
	.st1{fill:#60A6DD;}
	.st2{fill:url(#SVGID_2_);}
	.st3{fill:#355C74;}
	.st4{fill:url(#SVGID_3_);}
	.st5{fill:url(#SVGID_4_);}
	.st6{fill:#FFFFFF;}
	.st7{fill:url(#SVGID_5_);}
	.st8{fill:url(#SVGID_6_);}
	.st9{fill:url(#SVGID_7_);}
	.st10{fill:url(#SVGID_8_);}
	.st11{fill:url(#SVGID_9_);}
	.st12{fill:url(#SVGID_10_);}
	.st13{fill:url(#SVGID_11_);}
	.st14{fill:url(#SVGID_12_);}
	.st15{fill:#62A5DC;}
	.st16{fill:url(#SVGID_13_);}
	.st17{fill:url(#SVGID_14_);}
	.st18{fill:url(#SVGID_15_);}
	.st19{fill-rule:evenodd;clip-rule:evenodd;fill:#355C74;}
	.st20{fill-rule:evenodd;clip-rule:evenodd;fill:#60A6DD;}
	.st21{fill-rule:evenodd;clip-rule:evenodd;fill:url(#SVGID_16_);}
	.st22{fill-rule:evenodd;clip-rule:evenodd;fill:url(#SVGID_17_);}
	.st23{fill:url(#SVGID_18_);}
	.st24{fill:url(#SVGID_19_);}
	.st25{fill:url(#SVGID_20_);}
	.st26{fill:url(#SVGID_21_);}
	.st27{fill:url(#SVGID_22_);}
	.st28{fill:url(#SVGID_23_);}
	.st29{fill:url(#SVGID_24_);}
	.st30{fill:#5FAF5C;}
	.st31{fill:#676767;}
</style>
<g>
	<path class="st3" d="M15.1,2h-0.5V15c0,0.9-0.7,1.6-1.5,1.6H8H3.9V17c0,0.5,0.4,1,1,1H10h5.1c0.5,0,1-0.4,1-1V3
		C16.1,2.5,15.7,2,15.1,2z"/>
	<path class="st1" d="M8,16h5.1c0.5,0,1-0.4,1-1V2V1c0-0.5-0.4-1-1-1H8H6.3v0.3c0,0,0,0.1,0,0.1v2.2v0.6c0,0.8-0.6,1.4-1.4,1.4H4.4
		H2.3c0,0-0.1,0-0.1,0H1.9V15c0,0.5,0.4,1,1,1h1.1H8L8,16z"/>
	<linearGradient id="SVGID_1_" gradientUnits="userSpaceOnUse" x1="1.9042" y1="2.0047" x2="5.7428" y2="2.0047">
		<stop  offset="0" style="stop-color:#B4DDF8"/>
		<stop  offset="1" style="stop-color:#8DCCF1"/>
	</linearGradient>
	<path class="st0" d="M2.3,4h2.6c0,0,0,0,0,0c0.4,0,0.8-0.4,0.8-0.8c0,0,0,0,0,0V0.4C5.7,0.2,5.5,0,5.3,0c-0.1,0-0.2,0-0.3,0.1
		L2,3.3C1.8,3.5,1.9,4,2.3,4z"/>
</g>
</svg>
