<?xml version="1.0" encoding="utf-8"?>
<!-- Generator: Adobe Illustrator 19.2.1, SVG Export Plug-In . SVG Version: 6.00 Build 0)  -->
<svg version="1.1" id="Layer_1" xmlns="http://www.w3.org/2000/svg" xmlns:xlink="http://www.w3.org/1999/xlink" x="0px" y="0px"
	 viewBox="0 0 500 768" style="enable-background:new 0 0 500 768;" xml:space="preserve">
<g>
	<path d="M339.5,73.3c-1.2,39.4-9.5,75.3-38.3,123.2L200,365L13.4,54.4C2.4,36.1,4.9,16,15.9,0H259C291.7,17,319.8,41.3,339.5,73.3z
		"/>
	<path d="M465.8,484.7l-65.9,109.6l-59.4,98.9C320.8,726.1,292.3,752,259,768H15.9c-11-15-13.5-36-2.5-54.3l313.9-522.4
		c22-36.6,26.8-63.1,26.8-93.8l36.6,60.9l75.2,125.1C503,345.4,503,422.8,465.8,484.7z"/>
</g>
</svg>
