<?xml version="1.0" encoding="utf-8"?>
<!-- Generator: Adobe Illustrator 19.2.1, SVG Export Plug-In . SVG Version: 6.00 Build 0)  -->
<svg version="1.1" id="Layer_1" xmlns="http://www.w3.org/2000/svg" xmlns:xlink="http://www.w3.org/1999/xlink" x="0px" y="0px"
	 viewBox="0 0 18 18" style="enable-background:new 0 0 18 18;" xml:space="preserve">
<style type="text/css">
	.st0{fill:url(#SVGID_1_);}
	.st1{fill:#60A6DD;}
	.st2{fill:url(#SVGID_2_);}
	.st3{fill:#355C74;}
	.st4{fill:url(#SVGID_3_);}
	.st5{fill:url(#SVGID_4_);}
	.st6{fill:#FFFFFF;}
	.st7{fill:url(#SVGID_5_);}
	.st8{fill:url(#SVGID_6_);}
	.st9{fill:url(#SVGID_7_);}
	.st10{fill:url(#SVGID_8_);}
	.st11{fill:url(#SVGID_9_);}
	.st12{fill:url(#SVGID_10_);}
	.st13{fill:url(#SVGID_11_);}
	.st14{fill:url(#SVGID_12_);}
	.st15{fill:#62A5DC;}
	.st16{fill:url(#SVGID_13_);}
	.st17{fill:url(#SVGID_14_);}
	.st18{fill:url(#SVGID_15_);}
	.st19{fill-rule:evenodd;clip-rule:evenodd;fill:#355C74;}
	.st20{fill-rule:evenodd;clip-rule:evenodd;fill:#60A6DD;}
	.st21{fill-rule:evenodd;clip-rule:evenodd;fill:url(#SVGID_16_);}
	.st22{fill-rule:evenodd;clip-rule:evenodd;fill:url(#SVGID_17_);}
	.st23{fill:url(#SVGID_18_);}
	.st24{fill:url(#SVGID_19_);}
	.st25{fill:url(#SVGID_20_);}
	.st26{fill:url(#SVGID_21_);}
	.st27{fill:url(#SVGID_22_);}
	.st28{fill:url(#SVGID_23_);}
	.st29{fill:url(#SVGID_24_);}
	.st30{fill:#5FAF5C;}
	.st31{fill:#676767;}
</style>
<g>
	<path class="st19" d="M16.7,16.4H3.2c-0.7,0-1.3-0.6-1.3-1.3h13.5c0.7,0,1.3-0.6,1.3-1.3V3.5c0.7,0,1.3,0.6,1.3,1.3v10.3
		C18,15.8,17.4,16.4,16.7,16.4z"/>
	<path class="st20" d="M14.8,14.5H1.3c-0.7,0-1.3-0.6-1.3-1.3V2.9c0-0.7,0.6-1.3,1.3-1.3h13.5c0.7,0,1.3,0.6,1.3,1.3v10.3
		C16.1,13.9,15.5,14.5,14.8,14.5z"/>
	<rect x="1.3" y="2.9" class="st20" width="13.5" height="10.3"/>
	<linearGradient id="SVGID_1_" gradientUnits="userSpaceOnUse" x1="1.9151" y1="8.9345" x2="14.1649" y2="8.9345">
		<stop  offset="0" style="stop-color:#B4DDF8"/>
		<stop  offset="1" style="stop-color:#8DCCF1"/>
	</linearGradient>
	<path style="fill-rule:evenodd;clip-rule:evenodd;fill:url(#SVGID_1_);" d="M4.9,10.8l1.9-3.3l1.9,2l2.6-4.2l2.8,7.2H1.9l1.6-3.3
		L4.9,10.8z"/>
	<linearGradient id="SVGID_2_" gradientUnits="userSpaceOnUse" x1="2.5714" y1="6.1072" x2="5.1428" y2="6.1072">
		<stop  offset="0" style="stop-color:#B4DDF8"/>
		<stop  offset="1" style="stop-color:#8DCCF1"/>
	</linearGradient>
	<path style="fill-rule:evenodd;clip-rule:evenodd;fill:url(#SVGID_2_);" d="M3.9,4.8c0.7,0,1.3,0.6,1.3,1.3c0,0.7-0.6,1.3-1.3,1.3
		c-0.7,0-1.3-0.6-1.3-1.3C2.6,5.4,3.1,4.8,3.9,4.8z"/>
</g>
</svg>
