<?xml version="1.0" encoding="utf-8"?>
<!-- Generator: Adobe Illustrator 19.2.1, SVG Export Plug-In . SVG Version: 6.00 Build 0)  -->
<svg version="1.1" id="Layer_1" xmlns="http://www.w3.org/2000/svg" xmlns:xlink="http://www.w3.org/1999/xlink" x="0px" y="0px"
	 viewBox="0 0 18 18" style="enable-background:new 0 0 18 18;" xml:space="preserve">
<style type="text/css">
	.st0{fill:#5FAF5C;}
</style>
<path class="st0" d="M15.1,2h-0.5v13c0,0.9-0.7,1.6-1.5,1.6H8H3.9V17c0,0.5,0.4,1,1,1H10h5.1c0.5,0,1-0.4,1-1V3
	C16.1,2.5,15.7,2,15.1,2z"/>
<path class="st0" d="M2.3,4h2.6l0,0c0.4,0,0.8-0.4,0.8-0.8l0,0V0.4C5.7,0.2,5.5,0,5.3,0C5.2,0,5.1,0,5,0.1L2,3.3
	C1.8,3.5,1.9,4,2.3,4z"/>
<g>
	<path class="st0" d="M13.1,0H8H6.3v0.3v0.1v2.2v0.6c0,0.8-0.6,1.4-1.4,1.4H4.4H2.3H2.2H1.9V15c0,0.5,0.4,1,1,1H4h4h5.1
		c0.5,0,1-0.4,1-1V2V1C14.1,0.5,13.7,0,13.1,0z M12.3,10.9c0,0.1-0.1,0.2-0.2,0.2l-1,0.1c-0.1,0.2-0.2,0.4-0.3,0.6l0.6,0.8
		c0.1,0.1,0.1,0.2,0,0.3l-0.8,0.8c-0.1,0.1-0.2,0.1-0.3,0l-0.8-0.6c-0.2,0.1-0.4,0.2-0.6,0.3l-0.1,1c0,0.1-0.1,0.2-0.2,0.2H7.4
		c-0.1,0-0.2-0.1-0.2-0.2l-0.1-1c-0.2-0.1-0.4-0.2-0.6-0.3l-0.8,0.6c-0.1,0.1-0.2,0.1-0.3,0L4.5,13c-0.1-0.1-0.1-0.2,0-0.3l0.6-0.8
		c-0.1-0.2-0.2-0.4-0.3-0.6l-1-0.1c-0.1,0-0.2-0.1-0.2-0.2V9.7c0-0.1,0.1-0.2,0.2-0.2l1.1-0.1c0-0.2,0.1-0.4,0.2-0.6L4.5,7.9
		c-0.1-0.1-0.1-0.2,0-0.3l0.8-0.8c0.1-0.1,0.2-0.1,0.3,0l0.8,0.6c0.2-0.1,0.4-0.2,0.6-0.2l0.1-1.1c0-0.1,0.1-0.2,0.2-0.2h1.2
		c0.1,0,0.2,0.1,0.2,0.2l0.1,1c0.2,0.1,0.4,0.2,0.6,0.3l0.8-0.6c0.1-0.1,0.2-0.1,0.3,0l0.8,0.8c0.1,0.1,0.1,0.2,0,0.3l-0.6,0.8
		c0.1,0.2,0.2,0.4,0.3,0.6l1,0.1c0.1,0,0.2,0.1,0.2,0.2V10.9z"/>
	<circle class="st0" cx="8" cy="10.3" r="1.9"/>
</g>
</svg>
