<?xml version="1.0" encoding="utf-8"?>
<!-- Generator: Adobe Illustrator 19.2.1, SVG Export Plug-In . SVG Version: 6.00 Build 0)  -->
<svg version="1.1" id="Layer_1" xmlns="http://www.w3.org/2000/svg" xmlns:xlink="http://www.w3.org/1999/xlink" x="0px" y="0px"
	 viewBox="0 0 18 18" style="enable-background:new 0 0 18 18;" xml:space="preserve">
<style type="text/css">
	.st0{fill:#60A6DD;}
	.st1{fill:#8DCCF1;}
	.st2{fill:#355C74;}
</style>
<path class="st0" d="M12,0H9H6.7l0,0l0,0l0,0H1.5C0.7,0,0,0.7,0,1.5v2.7v9.3v0.2v2.7C0,17.3,0.7,18,1.5,18h2.9h2.3l0,0l0,0l0,0H12
	c0.8,0,1.5-0.7,1.5-1.5v-2.7V4.4V4.2V1.5C13.5,0.7,12.8,0,12,0z"/>
<path class="st1" d="M12,15.3l-2.7-2.8l1.4-1.4h-4V7h3.9L9.2,5.6L12,2.7L18,9L12,15.3z M10.6,12.4l1.4,1.4L16.6,9L12,4.1l-1.4,1.4
	L12.9,8H7.7v2H13L10.6,12.4z"/>
<polygon class="st2" points="16.6,9 12,4.1 10.6,5.5 12.9,8 7.7,8 7.7,10 12.9,10 10.6,12.4 12,13.9 "/>
</svg>
