<?xml version="1.0" encoding="utf-8"?>
<!-- Generator: Adobe Illustrator 19.2.1, SVG Export Plug-In . SVG Version: 6.00 Build 0)  -->
<svg version="1.1" id="Layer_1" xmlns="http://www.w3.org/2000/svg" xmlns:xlink="http://www.w3.org/1999/xlink" x="0px" y="0px"
	 viewBox="0 0 18 18" style="enable-background:new 0 0 18 18;" xml:space="preserve">
<style type="text/css">
	.st0{fill:#8DCCF1;}
	.st1{fill:#355C74;}
</style>
<g>
	<path class="st0" d="M0,14.5v2.1C0.1,17.4,0.7,18,1.4,18H3h6h7.6c0.7,0,1.3-0.6,1.4-1.3v-2.1H0V14.5z"/>
	<path class="st0" d="M18,3.5V1.3C17.9,0.6,17.3,0,16.6,0H15H9H1.4C0.7,0,0.1,0.6,0,1.3v2.1h18V3.5z"/>
	<path class="st1" d="M0,4.1V14h18V4.1H0z M9,5.8h7V7H9V5.8z M2,5.8h5.7v3.8H2V5.8z M16,12.2H2.1V11H16V12.2z M16,9.6H9V8.4h7V9.6z"
		/>
</g>
</svg>
