<?xml version="1.0" encoding="utf-8"?>
<!-- Generator: Adobe Illustrator 19.2.1, SVG Export Plug-In . SVG Version: 6.00 Build 0)  -->
<svg version="1.1" id="Layer_1" xmlns="http://www.w3.org/2000/svg" xmlns:xlink="http://www.w3.org/1999/xlink" x="0px" y="0px"
	 viewBox="0 0 18 18" style="enable-background:new 0 0 18 18;" xml:space="preserve">
<style type="text/css">
	.st0{fill:#60A6DD;}
	.st1{fill:#8DCCF1;}
	.st2{fill:#355C74;}
</style>
<path class="st0" d="M16.5,0h-2.9h-2.3l0,0l0,0l0,0H6C5.2,0,4.5,0.7,4.5,1.5v2.7v9.3v0.2v2.7C4.5,17.3,5.2,18,6,18h3h2.3l0,0l0,0
	l0,0h5.2c0.8,0,1.5-0.7,1.5-1.5v-2.7V4.4V4.2V1.5C18,0.7,17.3,0,16.5,0z"/>
<path class="st1" d="M5.2,15.3l-2.7-2.8L3.9,11H0V7h3.9L2.5,5.6l2.7-2.8l6,6.3L5.2,15.3z M3.9,12.4l1.3,1.5L9.9,9L5.2,4.1L3.9,5.6
	L6.2,8H1v2h5.2L3.9,12.4z"/>
<polygon class="st2" points="9.9,9 5.2,4.1 3.9,5.6 6.2,8 1,8 1,10 6.2,10 3.9,12.4 5.2,13.9 "/>
</svg>
