<?xml version="1.0" encoding="utf-8"?>
<!-- Generator: Adobe Illustrator 19.2.1, SVG Export Plug-In . SVG Version: 6.00 Build 0)  -->
<svg version="1.1" id="Layer_1" xmlns="http://www.w3.org/2000/svg" xmlns:xlink="http://www.w3.org/1999/xlink" x="0px" y="0px"
	 viewBox="0 0 18 18" style="enable-background:new 0 0 18 18;" xml:space="preserve">
<style type="text/css">
	.st0{fill:#60A6DD;}
	.st1{fill:#8DCCF1;}
</style>
<g>
	<path class="st0" d="M9,18h7.6c0.7,0,1.3-0.6,1.4-1.3v-2.1H5.2V18H9z"/>
	<path class="st0" d="M18,3.5V1.3C17.9,0.6,17.3,0,16.6,0H15H9H5.2v3.5H18z"/>
	<rect x="5.2" y="4.8" class="st0" width="12.8" height="3.5"/>
	<g>
		<path class="st1" d="M0,14.5v2.1C0.1,17.4,0.7,18,1.4,18H3h0.8v-3.5H0z"/>
		<path class="st1" d="M1.4,0C0.7,0,0.1,0.6,0,1.3v2.1h3.8V0H1.4z"/>
		<rect y="4.8" class="st1" width="3.8" height="3.5"/>
		<rect y="9.7" class="st1" width="3.8" height="3.5"/>
	</g>
	<rect x="5.2" y="9.7" class="st0" width="12.8" height="3.5"/>
</g>
</svg>
