<?xml version="1.0" encoding="utf-8"?>
<!-- Generator: Adobe Illustrator 19.2.1, SVG Export Plug-In . SVG Version: 6.00 Build 0)  -->
<svg version="1.1" id="Layer_1" xmlns="http://www.w3.org/2000/svg" xmlns:xlink="http://www.w3.org/1999/xlink" x="0px" y="0px"
	 viewBox="0 0 18 18" style="enable-background:new 0 0 18 18;" xml:space="preserve">
<style type="text/css">
	.st0{fill:#60A6DD;}
	.st1{fill:url(#SVGID_1_);}
	.st2{fill:#355C74;}
	.st3{fill:#FFFFFF;}
</style>
<path class="st0" d="M17.9,1.9C17.6,0.8,16.7,0,15.5,0h-13C1.1,0,0,1.1,0,2.5v13c0,1.2,0.8,2.1,1.9,2.4C2.1,18,2.3,18,2.5,18h13
	c1.4,0,2.5-1.1,2.5-2.5v-13C18,2.3,18,2.1,17.9,1.9z"/>
<linearGradient id="SVGID_1_" gradientUnits="userSpaceOnUse" x1="2.5239" y1="9.99" x2="8.6051" y2="9.99" gradientTransform="matrix(1 0 0 -1 0 17.89)">
	<stop  offset="0" style="stop-color:#A0DDF8"/>
	<stop  offset="1" style="stop-color:#67CCF2"/>
</linearGradient>
<path class="st1" d="M8.6,8.8V2.7l0,0c-3.4,0-6.1,2.7-6.1,6.1c0,1.7,0.7,3.2,1.8,4.3L8.6,8.8L8.6,8.8L8.6,8.8z"/>
<path class="st2" d="M4.8,13.8c1.1,1.1,2.5,1.5,4.2,1.5c3.4,0,6.5-2.5,6.5-5.8H9.1L4.8,13.8z"/>
<path class="st3" d="M9.4,2.7v6.1h6.1l0,0C15.5,5.4,12.8,2.7,9.4,2.7z"/>
</svg>
