<?xml version="1.0" encoding="utf-8"?>
<!-- Generator: Adobe Illustrator 19.2.1, SVG Export Plug-In . SVG Version: 6.00 Build 0)  -->
<svg version="1.1" id="Layer_1" xmlns="http://www.w3.org/2000/svg" xmlns:xlink="http://www.w3.org/1999/xlink" x="0px" y="0px"
	 viewBox="0 0 18 18" style="enable-background:new 0 0 18 18;" xml:space="preserve">
<style type="text/css">
	.st0{fill:url(#SVGID_1_);}
	.st1{fill:#60A6DD;}
	.st2{fill:url(#SVGID_2_);}
	.st3{fill:#355C74;}
	.st4{fill:url(#SVGID_3_);}
	.st5{fill:url(#SVGID_4_);}
	.st6{fill:#FFFFFF;}
	.st7{fill:url(#SVGID_5_);}
	.st8{fill:url(#SVGID_6_);}
	.st9{fill:url(#SVGID_7_);}
	.st10{fill:url(#SVGID_8_);}
	.st11{fill:url(#SVGID_9_);}
	.st12{fill:url(#SVGID_10_);}
	.st13{fill:url(#SVGID_11_);}
	.st14{fill:url(#SVGID_12_);}
	.st15{fill:#62A5DC;}
	.st16{fill:url(#SVGID_13_);}
	.st17{fill:url(#SVGID_14_);}
	.st18{fill:url(#SVGID_15_);}
	.st19{fill-rule:evenodd;clip-rule:evenodd;fill:#355C74;}
	.st20{fill-rule:evenodd;clip-rule:evenodd;fill:#60A6DD;}
	.st21{fill-rule:evenodd;clip-rule:evenodd;fill:url(#SVGID_16_);}
	.st22{fill-rule:evenodd;clip-rule:evenodd;fill:url(#SVGID_17_);}
	.st23{fill:url(#SVGID_18_);}
	.st24{fill:url(#SVGID_19_);}
	.st25{fill:url(#SVGID_20_);}
	.st26{fill:url(#SVGID_21_);}
	.st27{fill:url(#SVGID_22_);}
	.st28{fill:url(#SVGID_23_);}
	.st29{fill:url(#SVGID_24_);}
	.st30{fill:#5FAF5C;}
	.st31{fill:#676767;}
</style>
<g>
	<path class="st1" d="M5.9,8c0.2,0.2,0.3,0.4,0.3,0.7v7.1c0,0.4,0.5,0.6,0.8,0.3l2-2.3c0.3-0.3,0.4-0.5,0.4-0.8V8.7
		c0-0.2,0.1-0.5,0.3-0.7l5.7-6.2c0.4-0.5,0.1-1.2-0.5-1.2H0.7c-0.6,0-1,0.8-0.5,1.2L5.9,8z"/>
	<path class="st3" d="M17.3,1.7h-1.1c-0.1,0.2-0.2,0.4-0.3,0.6l-5.7,6.2c0,0.1-0.1,0.1-0.1,0.2v4.4c0,0.6-0.3,0.9-0.5,1.2l-0.1,0.1
		l-0.9,1v1.5c0,0.4,0.5,0.6,0.8,0.3l2-2.3c0.3-0.3,0.4-0.5,0.4-0.8V9.8c0-0.2,0.1-0.5,0.3-0.7l5.7-6.2C18.2,2.4,17.9,1.7,17.3,1.7z"
		/>
</g>
</svg>
