<?xml version="1.0" encoding="utf-8"?>
<!-- Generator: Adobe Illustrator 19.2.1, SVG Export Plug-In . SVG Version: 6.00 Build 0)  -->
<svg version="1.1" id="Layer_1" xmlns="http://www.w3.org/2000/svg" xmlns:xlink="http://www.w3.org/1999/xlink" x="0px" y="0px"
	 viewBox="0 0 18 18" style="enable-background:new 0 0 18 18;" xml:space="preserve">
<style type="text/css">
	.st0{fill:#355C74;}
	.st1{fill:#60A6DD;}
	.st2{fill:url(#SVGID_1_);}
</style>
<path class="st0" d="M15.1,2h-0.5v13c0,0.9-0.7,1.6-1.5,1.6H8H3.9V17c0,0.5,0.4,1,1,1H10h5.1c0.5,0,1-0.4,1-1V3
	C16.1,2.5,15.7,2,15.1,2z"/>
<path class="st1" d="M8,16h5.1c0.5,0,1-0.4,1-1V2V1c0-0.5-0.4-1-1-1H8H6.3v0.3v0.1v2.2v0.6c0,0.8-0.6,1.4-1.4,1.4H4.4H2.3H2.2H1.9
	V15c0,0.5,0.4,1,1,1H4H8L8,16z"/>
<linearGradient id="SVGID_1_" gradientUnits="userSpaceOnUse" x1="1.9042" y1="18" x2="5.7428" y2="18" gradientTransform="matrix(1 0 0 -1 0 20)">
	<stop  offset="0" style="stop-color:#B4DDF8"/>
	<stop  offset="1" style="stop-color:#8DCCF1"/>
</linearGradient>
<path class="st2" d="M2.3,4h2.6l0,0c0.4,0,0.8-0.4,0.8-0.8l0,0V0.4C5.7,0.2,5.5,0,5.3,0C5.2,0,5.1,0,5,0.1L2,3.3
	C1.8,3.5,1.9,4,2.3,4z"/>
<path class="st0" d="M12.1,9.5l-1-0.1c0-0.2-0.1-0.4-0.3-0.6l0.6-0.8c0.1-0.1,0.1-0.2,0-0.3l-0.8-0.8c-0.1-0.1-0.2-0.1-0.3,0
	L9.5,7.4C9.3,7.3,9.1,7.3,8.9,7.2l-0.1-1c0-0.1-0.1-0.2-0.2-0.2H7.4C7.3,5.9,7.2,6,7.2,6.1L7.1,7.2c-0.2,0-0.4,0.1-0.6,0.2L5.6,6.8
	c-0.1-0.1-0.2-0.1-0.3,0L4.5,7.6c-0.1,0.1-0.1,0.2,0,0.3l0.6,0.8C5,8.9,4.9,9.1,4.9,9.4L3.8,9.5c-0.1,0-0.2,0.1-0.2,0.2v1.2
	c0,0.1,0.1,0.2,0.2,0.2l1,0.1c0,0.2,0.1,0.4,0.3,0.6l-0.6,0.8c-0.1,0.1-0.1,0.2,0,0.3l0.8,0.8c0.1,0.1,0.2,0.1,0.3,0l0.8-0.6
	c0.2,0.1,0.4,0.2,0.6,0.3l0.1,1c0,0.1,0.1,0.2,0.2,0.2h1.2c0.1,0,0.2-0.1,0.2-0.2l0.1-1c0.2,0,0.4-0.1,0.6-0.3l0.8,0.6
	c0.1,0.1,0.2,0.1,0.3,0l0.8-0.8c0.1-0.1,0.1-0.2,0-0.3l-0.6-0.8c0.1-0.2,0.2-0.4,0.3-0.6l1-0.1c0.1,0,0.2-0.1,0.2-0.2V9.7
	C12.3,9.6,12.2,9.5,12.1,9.5z M8,12.2c-1.1,0-1.9-0.9-1.9-1.9S6.9,8.4,8,8.4c1.1,0,1.9,0.9,1.9,1.9S9,12.2,8,12.2z"/>
</svg>
