<?xml version="1.0" encoding="utf-8"?>
<!-- Generator: Adobe Illustrator 19.2.1, SVG Export Plug-In . SVG Version: 6.00 Build 0)  -->
<svg version="1.1" id="Layer_1" xmlns="http://www.w3.org/2000/svg" xmlns:xlink="http://www.w3.org/1999/xlink" x="0px" y="0px"
	 viewBox="0 0 18 18" style="enable-background:new 0 0 18 18;" xml:space="preserve">
<style type="text/css">
	.st0{fill:#62A5DC;}
	.st1{fill:#355C74;}
	.st2{fill:#8DCCF1;}
</style>
<g>
	<path class="st0" d="M17.9,3.6l-0.1,0L9.5,9.3l8.4,5c0.1-0.1,0.1-0.1,0.1-0.2V3.8C18,3.7,18,3.6,17.9,3.6z"/>
	<path class="st0" d="M0.1,14.3L7.3,10L0.1,3.7C0,3.7,0,3.8,0,3.9v10.2C0,14.2,0,14.3,0.1,14.3z"/>
	<polygon class="st0" points="0.1,3.7 0.1,3.7 7.3,10 8.1,9.6 	"/>
	<path class="st1" d="M10.7,10L9.9,9.5L9,10.2L8.1,9.5L7.3,10l-7.2,4.3c0.1,0,0.1,0.1,0.2,0.1h17.4c0.1,0,0.1,0,0.2-0.1L10.7,10z"/>
	<path class="st2" d="M17.7,3.6H0.3c-0.1,0-0.1,0-0.2,0.1L9,10.3l8.9-6.7C17.8,3.6,17.8,3.6,17.7,3.6z"/>
</g>
</svg>
