<svg id="Layer_1" xmlns="http://www.w3.org/2000/svg" viewBox="0 0 170.7 91.2">
  <style>
    .st0{fill:url(#SVGID_1_);} .st1{fill:url(#SVGID_2_);} .st2{fill:#A6A8AB;}
  </style>
  <linearGradient id="SVGID_1_" gradientUnits="userSpaceOnUse" x1="143.48" y1="-3.187" x2="158.782" y2="25.57">
    <stop offset=".404" stop-color="#00BFF2"/>
    <stop offset=".915" stop-color="#0088CF"/>
  </linearGradient>
  <path class="st0" d="M150.1 26.8l6.9-11.5c2-3.3 2.5-5.7 2.6-8.4-2.4-4-6.7-6.4-11.4-6.4h-8c-2.6 0-4.2 2.8-2.9 5.1l12.8 21.2z"/>
  <linearGradient id="SVGID_2_" gradientUnits="userSpaceOnUse" x1="147.37" y1="30.488" x2="165.922" y2="42.228">
    <stop offset=".118" stop-color="#1B75BB"/>
    <stop offset=".921" stop-color="#002E6E"/>
  </linearGradient>
  <path class="st1" d="M168.3 21.2l-5.1-8.6-2.5-4.2c0 2.1-.3 3.9-1.8 6.4l-21.5 35.7c-1.3 2.2.3 5.1 2.9 5.1h8c4.7 0 9-2.5 11.4-6.5l4.1-6.8 4.5-7.5c2.5-4.1 2.5-9.4 0-13.6z"/>
  <path class="st2" d="M7.5 28.6c0 1-.3 1.8-.9 2.4-.6.6-1.4.9-2.3.9-.9 0-1.6-.3-2.3-.9-.6-.6-.9-1.4-.9-2.4s.3-1.8.9-2.4c.6-.6 1.4-.9 2.3-.9.9 0 1.6.3 2.3.9.6.5.9 1.3.9 2.4zm-1 44.8H2.1V39h4.3v34.4zM27 26.8c6.5 0 11.4 1.2 14.6 3.7 3.2 2.5 4.8 6 4.8 10.6 0 2.6-.5 4.9-1.4 6.7-.9 1.8-2.3 3.3-4 4.5-1.7 1.1-3.9 2-6.4 2.5-2.5.5-5.3.8-8.5.8h-6.3v17.9h-4.5V28.1c1.6-.4 3.5-.8 5.6-1 2.2-.2 4.2-.3 6.1-.3zm.2 4c-1.7 0-3.1.1-4.3.2-1.2.1-2.2.2-3 .3v20.4h5.7c2.4 0 4.7-.1 6.6-.4 2-.3 3.7-.8 5.1-1.6 1.4-.8 2.5-1.9 3.2-3.2.8-1.4 1.1-3.1 1.1-5.3 0-2-.4-3.7-1.2-5.1-.8-1.3-1.9-2.4-3.3-3.2-1.4-.8-2.9-1.3-4.6-1.6-1.7-.4-3.5-.5-5.3-.5zM80.4 56.2c0 2.7-.4 5.2-1.2 7.4-.8 2.2-1.9 4.1-3.3 5.7-1.4 1.6-3.1 2.8-5 3.6-1.9.9-4 1.3-6.3 1.3s-4.4-.4-6.3-1.3c-1.9-.9-3.6-2.1-5-3.6-1.4-1.6-2.5-3.4-3.3-5.7-.8-2.2-1.2-4.7-1.2-7.4s.4-5.2 1.2-7.4c.8-2.2 1.9-4.1 3.3-5.7 1.4-1.6 3.1-2.8 5-3.7 1.9-.9 4-1.3 6.3-1.3s4.4.4 6.3 1.3c1.9.9 3.6 2.1 5 3.7s2.5 3.5 3.3 5.7c.8 2.2 1.2 4.7 1.2 7.4zm-4.6 0c0-4.3-1-7.7-3-10.3-2-2.6-4.7-3.8-8.1-3.8-3.4 0-6.1 1.3-8.1 3.8-2 2.6-3 6-3 10.3 0 4.3 1 7.7 3 10.3 2 2.5 4.7 3.8 8.1 3.8 3.4 0 6.1-1.3 8.1-3.8s3-6 3-10.3zM94 70.4c2.5 0 4.5-.4 6.2-1.2 1.6-.8 2.4-2.2 2.4-4.2 0-.9-.1-1.7-.4-2.4-.3-.7-.8-1.3-1.4-1.8-.7-.5-1.5-1-2.6-1.5s-2.4-1.1-4-1.7c-1.3-.5-2.5-1.1-3.7-1.6-1.2-.6-2.2-1.2-3.1-1.9-.9-.7-1.6-1.6-2.1-2.6s-.8-2.3-.8-3.7c0-2.8 1.1-5.1 3.2-6.8 2.1-1.7 5-2.6 8.7-2.6 2.4 0 4.3.2 5.8.6 1.5.4 2.6.8 3.2 1.1l-1 3.9c-.5-.3-1.4-.6-2.7-1.1-1.3-.4-3.1-.7-5.6-.7-1 0-1.9.1-2.8.3-.9.2-1.6.5-2.3.9-.7.4-1.2 1-1.6 1.6-.4.6-.6 1.4-.6 2.4 0 .9.2 1.7.5 2.4.4.7.9 1.3 1.6 1.8.7.5 1.5 1 2.5 1.4 1 .4 2.1.9 3.4 1.5 1.3.5 2.6 1.1 3.8 1.6 1.2.6 2.3 1.2 3.2 2 .9.8 1.7 1.7 2.3 2.8.6 1.1.9 2.5.9 4.1 0 3.1-1.2 5.5-3.5 7.1-2.3 1.6-5.5 2.4-9.6 2.4-3 0-5.3-.3-6.9-.8-1.6-.5-2.7-.9-3.2-1.2l1.1-3.9c.1.1.4.2.9.4.4.2 1 .4 1.8.7.8.2 1.7.5 2.7.6 1.1 0 2.3.1 3.7.1zM116.7 39h13.7v3.7h-13.7V61c0 2 .2 3.5.5 4.8.3 1.2.8 2.2 1.4 2.8.6.7 1.4 1.1 2.3 1.3.9.2 1.9.3 2.9.3 1.8 0 3.3-.2 4.4-.6 1.1-.4 2-.8 2.6-1.2l1.1 3.6c-.6.4-1.7.9-3.3 1.4-1.6.5-3.2.8-5.1.8-2.1 0-3.9-.3-5.4-.8-1.4-.6-2.6-1.4-3.5-2.5-.9-1.1-1.5-2.5-1.8-4.2-.4-1.7-.5-3.7-.5-6V28.8l4.3-.8v11z"/>
  <g>
    <path class="st2" d="M0 88.8c0-.4.1-.8.2-1.1.1-.3.3-.6.5-.8.2-.2.4-.4.7-.5.3-.1.5-.2.8-.2.6 0 1.2.2 1.5.6s.6 1 .6 1.8v.4h-3c0 .3.2.5.4.6.2.2.5.2.9.2.2 0 .5 0 .7-.1.2 0 .4-.1.6-.2l.1 1.4c0 .1-.1.1-.3.1-.1 0-.2.1-.4.1-.1 0-.3 0-.5.1h-.5c-.4 0-.8-.1-1.1-.2-.3-.1-.6-.3-.8-.5-.2-.2-.3-.5-.4-.8v-.9zm3-.5V88c0-.1-.1-.2-.1-.3-.1-.1-.2-.1-.3-.2-.1-.1-.2-.1-.4-.1-.1 0-.3 0-.4.1-.1 0-.2.1-.3.2-.1.1-.1.2-.2.3 0 .1-.1.2-.1.3H3zM8.5 88.7c0-.4-.1-.7-.2-.9-.1-.2-.3-.3-.6-.3h-.6V91H6v-4.4c.1 0 .2-.1.4-.1.1 0 .3-.1.5-.1s.3 0 .5-.1h.5c.3 0 .6 0 .8.1.2.1.4.2.5.3l.6-.3c.2-.1.5-.1.7-.1.4 0 .7.1.9.2.2.1.4.2.6.4.1.2.2.4.3.7.1.3.1.5.1.9v2.6h-1.3v-2.4c0-.4-.1-.7-.2-.9-.1-.2-.3-.3-.6-.3-.1 0-.2 0-.3.1-.1 0-.2.1-.3.1 0 .1.1.3.1.4v3H8.5v-2.4zM15.9 86.4c.4 0 .7 0 1 .1.3.1.5.2.6.4.2.2.3.4.3.6.1.2.1.5.1.8V91c-.2 0-.4.1-.8.1-.3.1-.7.1-1.2.1-.3 0-.6 0-.8-.1-.2-.1-.4-.1-.6-.3-.2-.1-.3-.3-.4-.5-.1-.1-.1-.3-.1-.6s.1-.5.2-.7c.1-.2.3-.3.4-.4.2-.1.4-.2.6-.2.2 0 .5-.1.7-.1h.4c.1 0 .2 0 .3.1v-.1c0-.2-.1-.4-.2-.5-.1-.1-.4-.2-.7-.2H15c-.2 0-.4.1-.6.1l-.2-1c.1 0 .2 0 .3-.1.1 0 .2 0 .4-.1.1 0 .3 0 .4-.1h.6zm.1 3.8h.7v-1h-.8c-.1 0-.2 0-.3.1-.1 0-.1.1-.2.2 0 .1-.1.2-.1.3 0 .2.1.3.2.4.1-.1.3 0 .5 0zM21.2 85.2c0 .2-.1.4-.2.6-.2.1-.3.2-.5.2s-.4-.1-.5-.2c-.2-.1-.2-.3-.2-.6s.1-.4.2-.6c.2-.1.3-.2.5-.2s.4.1.5.2c.2.2.2.4.2.6zm-.1 5.9h-1.3v-4.6h1.3v4.6zM24.9 91.2c-.4 0-.7 0-.9-.1l-.6-.3c-.1-.1-.2-.3-.3-.5 0-.2-.1-.4-.1-.7v-5l1.3-.2v5.3c0 .1.1.2.1.2 0 .1.1.1.2.2.1 0 .2.1.4.1l-.1 1zM31.6 88c0 .2 0 .3-.1.5-.1.1-.1.3-.3.4-.1.1-.2.2-.4.3-.2.1-.3.1-.5.1s-.4 0-.5-.1c-.2-.1-.3-.2-.4-.3-.1-.1-.2-.2-.3-.4-.1-.1-.1-.3-.1-.5s0-.3.1-.5.1-.3.3-.4c.1-.1.2-.2.4-.3.2-.1.3-.1.5-.1s.4 0 .5.1c.2.1.3.2.4.3.1.1.2.2.3.4.1.2.1.4.1.5zM37.4 90.2c.2 0 .4 0 .5-.1.1 0 .1-.1.1-.3 0-.1-.1-.2-.2-.3-.1-.1-.3-.2-.6-.3-.2-.1-.4-.2-.6-.2-.2-.1-.3-.2-.4-.3-.1-.1-.2-.2-.3-.4.1-.1.1-.3.1-.5 0-.4.2-.8.5-1 .3-.2.8-.4 1.3-.4.3 0 .5 0 .8.1.3 0 .5.1.6.2l-.2 1c-.2-.1-.3-.1-.5-.1s-.4-.1-.6-.1c-.4 0-.6.1-.6.3v.1l.1.1c.1 0 .1.1.2.1s.2.1.3.1c.3.1.5.2.7.3.2.1.3.2.4.3.1.1.2.3.2.4 0 .1.1.3.1.5 0 .5-.2.8-.5 1-.3.2-.8.3-1.4.3-.4 0-.7 0-1-.1-.3.1-.4.1-.6 0l.2-1.1c.2.1.4.2.7.2s.5.2.7.2zM45.4 88.8c0 .4-.1.7-.2 1-.1.3-.3.6-.5.8-.2.2-.4.4-.7.5-.3.1-.6.2-.9.2-.3 0-.6-.1-.9-.2-.3-.1-.5-.3-.7-.5-.2-.2-.4-.5-.5-.8-.1-.3-.2-.6-.2-1s.1-.7.2-1c.1-.3.3-.5.5-.8.2-.2.4-.4.7-.5.3-.1.6-.2.9-.2.3 0 .6.1.9.2.3.1.5.3.7.5.2.2.4.5.5.8.1.3.2.6.2 1zm-1.4 0c0-.4-.1-.7-.2-.9-.2-.2-.4-.3-.7-.3-.3 0-.5.1-.7.3-.2.2-.2.5-.2.9s.1.7.2 1c.2.2.4.4.7.4.3 0 .5-.1.7-.4.1-.3.2-.6.2-1zM46.9 88.8c0-.3.1-.6.2-.9.1-.3.3-.5.5-.8.2-.2.4-.4.7-.5.3-.1.6-.2 1-.2.2 0 .5 0 .7.1.2 0 .4.1.6.2l-.3 1c-.1 0-.3-.1-.4-.1s-.3-.1-.5-.1c-.4 0-.7.1-.9.4s-.3.6-.3.9c0 .4.1.7.3 1 .2.2.5.3.9.3h.5c.2 0 .3-.1.5-.1l.2 1.1c-.2.1-.3.1-.6.2-.2 0-.5.1-.7.1-.4 0-.8-.1-1.1-.2-.3-.1-.5-.3-.7-.5-.2-.2-.3-.5-.4-.8-.2-.4-.2-.8-.2-1.1zM53.6 85.2c0 .2-.1.4-.2.6-.2.1-.4.2-.6.2-.2 0-.4-.1-.5-.2-.2-.1-.2-.3-.2-.6s.1-.4.2-.6c.2-.1.3-.2.5-.2s.4.1.5.2c.2.2.3.4.3.6zm-.1 5.9h-1.3v-4.6h1.3v4.6zM57.1 86.4c.4 0 .7 0 1 .1.3.1.5.2.6.4.2.2.3.4.3.6.1.2.1.5.1.8V91c-.2 0-.4.1-.8.1-.3.1-.7.1-1.2.1-.3 0-.6 0-.8-.1-.2-.1-.4-.1-.6-.3-.2-.1-.3-.3-.4-.5-.1-.2-.1-.4-.1-.7 0-.3.1-.5.2-.7.1-.2.3-.3.4-.4.2-.1.4-.2.6-.2s.5-.1.7-.1h.4c.1 0 .2 0 .3.1v-.1c0-.2-.1-.4-.2-.5-.1-.1-.4-.2-.7-.2h-.7c-.2 0-.4.1-.6.1l-.2-1c.1 0 .2 0 .3-.1.1 0 .2 0 .4-.1.1 0 .3 0 .4-.1.3.1.4.1.6.1zm.1 3.8h.7v-1h-.8c-.1 0-.2 0-.3.1-.1 0-.1.1-.2.2 0 .1-.1.2-.1.3 0 .2.1.3.2.4.1-.1.2 0 .5 0zM62.8 91.2c-.4 0-.7 0-.9-.1l-.6-.3c-.1-.1-.2-.3-.3-.5 0-.2-.1-.4-.1-.7v-5l1.3-.2v5.3c0 .1.1.2.1.2 0 .1.1.1.2.2.1 0 .2.1.4.1l-.1 1zM69.5 88c0 .2 0 .3-.1.5-.1.1-.1.3-.3.4-.1.1-.2.2-.4.3-.2.1-.3.1-.5.1s-.4 0-.5-.1c-.2-.1-.3-.2-.4-.3-.1-.1-.2-.2-.3-.4V88c0-.2 0-.3.1-.5s.1-.3.3-.4c.1-.1.2-.2.4-.3.2-.1.3-.1.5-.1s.4 0 .5.1c.2.1.3.2.4.3.1.1.2.2.3.4v.5zM76.5 88.7c0-.4-.1-.7-.2-.9-.1-.2-.3-.3-.6-.3h-.6V91H74v-4.4c.1 0 .2-.1.4-.1.1 0 .3-.1.5-.1s.3 0 .5-.1h.5c.3 0 .6 0 .8.1.2.1.4.2.5.3l.6-.3c.2-.1.5-.1.7-.1.4 0 .7.1.9.2.2.1.4.2.6.4.1.2.2.4.3.7.1.3.1.5.1.9v2.6H79v-2.4c0-.4-.1-.7-.2-.9-.1-.2-.3-.3-.6-.3-.1 0-.2 0-.3.1-.1 0-.2.1-.3.1 0 .1.1.3.1.4v3h-1.3v-2.4zM86.5 88.8c0 .4-.1.7-.2 1-.1.3-.3.6-.5.8-.2.2-.4.4-.7.5-.3.1-.6.2-.9.2-.3 0-.6-.1-.9-.2-.3-.1-.5-.3-.7-.5-.2-.2-.4-.5-.5-.8-.1-.3-.2-.6-.2-1s.1-.7.2-1c.1-.3.3-.5.5-.8.2-.2.4-.4.7-.5.3-.1.6-.2.9-.2.3 0 .6.1.9.2.3.1.5.3.7.5.2.2.4.5.5.8.2.3.2.6.2 1zm-1.3 0c0-.4-.1-.7-.2-.9-.2-.2-.4-.3-.7-.3-.3 0-.5.1-.7.3-.2.2-.2.5-.2.9s.1.7.2 1c.2.2.4.4.7.4.3 0 .5-.1.7-.4.1-.3.2-.6.2-1zM92.5 88.8c0 .4-.1.7-.2 1-.1.3-.3.5-.5.8-.2.2-.5.4-.7.5-.3.1-.6.2-1 .2h-.5c-.2 0-.3 0-.5-.1-.2 0-.3-.1-.5-.1s-.3-.1-.4-.1v-6.4l1.3-.2v2.3c.1-.1.3-.1.5-.1s.3-.1.5-.1c.3 0 .6.1.9.2.2.1.5.3.6.5.2.2.3.5.4.8.1.1.1.4.1.8zm-1.3 0c0-.8-.3-1.3-.9-1.3-.1 0-.3 0-.4.1-.1 0-.2.1-.3.1v2.4h.5c.4 0 .6-.1.8-.4.2-.2.3-.5.3-.9zM95.7 85.2c0 .2-.1.4-.2.6-.2.1-.3.2-.5.2s-.4-.1-.5-.2c-.2-.1-.2-.3-.2-.6s.1-.4.2-.6c.2-.1.3-.2.5-.2s.4.1.5.2c.1.2.2.4.2.6zm-.1 5.9h-1.3v-4.6h1.3v4.6zM99.3 91.2c-.4 0-.7 0-.9-.1l-.6-.3c-.1-.1-.2-.3-.3-.5 0-.2-.1-.4-.1-.7v-5l1.3-.2v5.3c0 .1.1.2.1.2 0 .1.1.1.2.2.1 0 .2.1.4.1l-.1 1zM100.8 88.8c0-.4.1-.8.2-1.1.1-.3.3-.6.5-.8.2-.2.4-.4.7-.5.3-.1.5-.2.8-.2.6 0 1.2.2 1.5.6s.6 1 .6 1.8v.4h-2.9c0 .3.2.5.4.6.2.2.5.2.9.2.2 0 .5 0 .7-.1.2 0 .4-.1.6-.2l.2 1.1c-.1 0-.2.1-.3.1-.1 0-.2.1-.4.1-.1 0-.3 0-.5.1h-.5c-.4 0-.8-.1-1.1-.2-.3-.1-.6-.3-.8-.5-.2-.2-.3-.5-.4-.8-.2.1-.2-.2-.2-.6zm3-.5c0-.1 0-.2-.1-.3 0-.1-.1-.2-.1-.3-.1-.1-.2-.1-.3-.2-.1-.1-.2-.1-.4-.1-.1 0-.3 0-.4.1-.1 0-.2.1-.3.2-.1.1-.1.2-.2.3 0 .1-.1.2-.1.3h1.9zM111.9 88c0 .2 0 .3-.1.5-.1.1-.1.3-.3.4-.1.1-.2.2-.4.3-.2.1-.3.1-.5.1s-.4 0-.5-.1c-.2-.1-.3-.2-.4-.3-.1-.1-.2-.2-.3-.4-.1-.1-.1-.3-.1-.5s0-.3.1-.5.1-.3.3-.4c.1-.1.2-.2.4-.3.2-.1.3-.1.5-.1s.4 0 .5.1c.2.1.3.2.4.3.1.1.2.2.3.4 0 .2.1.4.1.5zM119.2 88.5c-.1.4-.2.9-.4 1.3-.1.4-.3.9-.4 1.3h-1c-.1-.2-.2-.5-.3-.9-.1-.3-.2-.7-.4-1.1s-.3-.8-.4-1.3c-.1-.4-.3-.9-.4-1.3h1.4c0 .2.1.4.2.7.1.2.1.5.2.8.1.3.1.5.2.8s.1.5.2.8c.1-.3.1-.5.2-.8.1-.3.1-.5.2-.8.1-.3.1-.5.2-.7.1-.2.1-.5.2-.7h.9c0 .2.1.4.2.7.1.2.1.5.2.7.1.3.1.5.2.8.1.3.1.5.2.8.1-.2.1-.5.2-.8.1-.3.1-.5.2-.8.1-.3.1-.5.2-.8.1-.2.1-.5.2-.7h1.3c-.1.5-.3.9-.4 1.3-.1.4-.3.9-.4 1.3-.1.4-.3.8-.4 1.1l-.3.9h-1c-.1-.4-.3-.9-.4-1.3-.4-.5-.5-.9-.6-1.3zM123.6 88.8c0-.4.1-.8.2-1.1.1-.3.3-.6.5-.8.2-.2.4-.4.7-.5.3-.1.5-.2.8-.2.6 0 1.2.2 1.5.6s.6 1 .6 1.8v.4H125c0 .3.2.5.4.6.2.2.5.2.9.2.2 0 .5 0 .7-.1.2 0 .4-.1.6-.2l.2 1.1c-.1 0-.2.1-.3.1-.1 0-.2.1-.4.1-.1 0-.3 0-.5.1h-.5c-.4 0-.8-.1-1.1-.2-.3-.1-.6-.3-.8-.5-.2-.2-.3-.5-.4-.8-.1.1-.2-.2-.2-.6zm3.1-.5c0-.1 0-.2-.1-.3 0-.1-.1-.2-.1-.3-.1-.1-.2-.1-.3-.2-.1-.1-.2-.1-.4-.1-.1 0-.3 0-.4.1-.1 0-.2.1-.3.2-.1.1-.1.2-.2.3 0 .1-.1.2-.1.3h1.9zM133.9 88.8c0 .4-.1.7-.2 1-.1.3-.3.5-.5.8-.2.2-.5.4-.7.5-.3.1-.6.2-1 .2h-.5c-.2 0-.3 0-.5-.1-.2 0-.3-.1-.5-.1s-.3-.1-.4-.1v-6.4l1.3-.2v2.3c.1-.1.3-.1.5-.1s.3-.1.5-.1c.3 0 .6.1.9.2.2.1.5.3.6.5.2.2.3.5.4.8.1.1.1.4.1.8zm-1.3 0c0-.8-.3-1.3-.9-1.3-.1 0-.3 0-.4.1-.1 0-.2.1-.3.1v2.4h.5c.4 0 .6-.1.8-.4.2-.2.3-.5.3-.9z"/>
  </g>
</svg>
