<?xml version="1.0" encoding="utf-8"?>
<!-- Generator: Adobe Illustrator 19.2.1, SVG Export Plug-In . SVG Version: 6.00 Build 0)  -->
<svg version="1.1" id="Layer_1" xmlns="http://www.w3.org/2000/svg" xmlns:xlink="http://www.w3.org/1999/xlink" x="0px" y="0px"
	 viewBox="0 0 33.3 55.2" style="enable-background:new 0 0 33.3 55.2;" xml:space="preserve">
<style type="text/css">
	.st0{fill:#00C0F3;}
	.st1{fill:#1C75BC;}
</style>
<g>
	<path class="st0" d="M13.2,26.3l6.9-11.5c2-3.3,2.5-5.7,2.6-8.4C20.4,2.4,16,0,11.4,0h-8C0.8,0-0.9,2.8,0.5,5.1
		C0.5,5.1,13.2,26.3,13.2,26.3z"/>
	<path class="st1" d="M31.4,20.7l-5.1-8.6L23.8,8c0,2.1-0.3,3.9-1.8,6.4L0.5,50.1c-1.3,2.2,0.3,5.1,2.9,5.1h8c4.7,0,9-2.5,11.4-6.5
		l4.1-6.8l4.5-7.5C34,30.3,34,25,31.4,20.7z"/>
</g>
</svg>
