<?xml version="1.0" encoding="utf-8"?>
<!-- Generator: Adobe Illustrator 19.1.1, SVG Export Plug-In . SVG Version: 6.00 Build 0)  -->
<svg version="1.0" id="unknown" xmlns:sketch="http://www.bohemiancoding.com/sketch/ns"
	 xmlns="http://www.w3.org/2000/svg" xmlns:xlink="http://www.w3.org/1999/xlink" x="0px" y="0px" width="100px" height="100px"
	 viewBox="-255 347 100 100" enable-background="new -255 347 100 100" xml:space="preserve">
<path fill="#E5E5E5" d="M-155,447h-100V347h100V447z"/>
<circle fill="none" cx="-205" cy="397" r="50"/>
<path fill="#A0A0A0" d="M-192,418.9c0,4,4.7,5.2,7.1,5.8c7.6,2,22.8,5.9,22.8,5.9c3.2,1.1,5.7,3.5,7.1,6.6v9.8h-100v-9.8
	c1.3-3.1,3.9-5.5,7.1-6.6c0,0,15.2-3.9,22.8-5.9c2.4-0.6,7.1-1.8,7.1-5.8s0-10.9,0-10.9h26C-192,408-192,414.9-192,418.9z"/>
<path fill="none" d="M-192,418.9c0,4,4.7,5.2,7.1,5.8c7.6,2,22.8,5.9,22.8,5.9c3.2,1.1,5.7,3.5,7.1,6.6v9.8h-100v-9.8
	c1.3-3.1,3.9-5.5,7.1-6.6c0,0,15.2-3.9,22.8-5.9c2.4-0.6,7.1-1.8,7.1-5.8s0-10.9,0-10.9h26C-192,408-192,414.9-192,418.9z"/>
<path fill="#C4C4C4" d="M-205.4,363c19.1,0,20.7,13.8,20.8,15.1c1.1,11.9-3,28.1-6.8,33.7c-4,5.9-10.5,8.3-13.8,8.3
	s-9.8-2.5-13.8-8.4c-3.8-5.6-7.9-21.8-6.8-33.8C-225.7,376.7-224.5,363-205.4,363z"/>
<path fill="#6D6D6D" d="M-205.2,422.8c-8.5,0-12.8-6.6-12.8-9.7c3.9,4.9,10.8,7.1,12.8,7.1s9.2-2.2,13.2-7.5
	C-192,415.4-196.7,422.8-205.2,422.8z"/>
</svg>
